<svg width="200" height="81" viewBox="0 0 200 81" fill="none" xmlns="http://www.w3.org/2000/svg">
<rect width="200" height="81" rx="16" fill="url(#paint0_linear_228_231)"/>
<path d="M113.056 31.248V33.96H108.592V48H105.232V33.96H100.768V31.248H113.056ZM114.644 41.304C114.644 39.96 114.908 38.768 115.436 37.728C115.98 36.688 116.708 35.888 117.62 35.328C118.548 34.768 119.58 34.488 120.716 34.488C121.708 34.488 122.572 34.688 123.308 35.088C124.06 35.488 124.66 35.992 125.108 36.6V34.704H128.492V48H125.108V46.056C124.676 46.68 124.076 47.2 123.308 47.616C122.556 48.016 121.684 48.216 120.692 48.216C119.572 48.216 118.548 47.928 117.62 47.352C116.708 46.776 115.98 45.968 115.436 44.928C114.908 43.872 114.644 42.664 114.644 41.304ZM125.108 41.352C125.108 40.536 124.948 39.84 124.628 39.264C124.308 38.672 123.876 38.224 123.332 37.92C122.788 37.6 122.204 37.44 121.58 37.44C120.956 37.44 120.38 37.592 119.852 37.896C119.324 38.2 118.892 38.648 118.556 39.24C118.236 39.816 118.076 40.504 118.076 41.304C118.076 42.104 118.236 42.808 118.556 43.416C118.892 44.008 119.324 44.464 119.852 44.784C120.396 45.104 120.972 45.264 121.58 45.264C122.204 45.264 122.788 45.112 123.332 44.808C123.876 44.488 124.308 44.04 124.628 43.464C124.948 42.872 125.108 42.168 125.108 41.352ZM136.861 48.216C135.773 48.216 134.797 48.024 133.933 47.64C133.069 47.24 132.381 46.704 131.869 46.032C131.373 45.36 131.101 44.616 131.053 43.8H134.437C134.501 44.312 134.749 44.736 135.181 45.072C135.629 45.408 136.181 45.576 136.837 45.576C137.477 45.576 137.973 45.448 138.325 45.192C138.693 44.936 138.877 44.608 138.877 44.208C138.877 43.776 138.653 43.456 138.205 43.248C137.773 43.024 137.077 42.784 136.117 42.528C135.125 42.288 134.309 42.04 133.669 41.784C133.045 41.528 132.501 41.136 132.037 40.608C131.589 40.08 131.365 39.368 131.365 38.472C131.365 37.736 131.573 37.064 131.989 36.456C132.421 35.848 133.029 35.368 133.813 35.016C134.613 34.664 135.549 34.488 136.621 34.488C138.205 34.488 139.469 34.888 140.413 35.688C141.357 36.472 141.877 37.536 141.973 38.88H138.757C138.709 38.352 138.485 37.936 138.085 37.632C137.701 37.312 137.181 37.152 136.525 37.152C135.917 37.152 135.445 37.264 135.109 37.488C134.789 37.712 134.629 38.024 134.629 38.424C134.629 38.872 134.853 39.216 135.301 39.456C135.749 39.68 136.445 39.912 137.389 40.152C138.349 40.392 139.141 40.64 139.765 40.896C140.389 41.152 140.925 41.552 141.373 42.096C141.837 42.624 142.077 43.328 142.093 44.208C142.093 44.976 141.877 45.664 141.445 46.272C141.029 46.88 140.421 47.36 139.621 47.712C138.837 48.048 137.917 48.216 136.861 48.216Z" fill="white"/>
<path d="M53 31V23.5C53 18.5294 48.9706 14.5 44 14.5C39.0294 14.5 35 18.5294 35 23.5V31M25.8182 65.5H62.1818C65.3951 65.5 68 62.9435 68 59.79L64.2727 29.4999C64.2727 26.3464 61.6678 23.7899 58.4545 23.7899H28.8182C25.6049 23.7899 23 26.3464 23 29.4999L20 59.79C20 62.9435 22.6049 65.5 25.8182 65.5Z" stroke="white" stroke-opacity="0.8" stroke-width="3" stroke-linecap="round" stroke-linejoin="round"/>
<defs>
<linearGradient id="paint0_linear_228_231" x1="0" y1="0" x2="200" y2="81" gradientUnits="userSpaceOnUse">
<stop stop-color="#77EAB3"/>
<stop offset="1" stop-color="#318793" stop-opacity="0.82"/>
</linearGradient>
</defs>
</svg>
