<svg xmlns="http://www.w3.org/2000/svg" version="1.1" xmlns:xlink="http://www.w3.org/1999/xlink" xmlns:svgjs="http://svgjs.dev/svgjs" viewBox="0 0 800 800"><defs><linearGradient x1="50%" y1="0%" x2="50%" y2="100%" id="uundulate-grad"><stop stop-color="hsl(37, 99%, 67%)" stop-opacity="1" offset="45%"></stop><stop stop-color="hsl(316, 73%, 52%)" stop-opacity="1" offset="100%"></stop></linearGradient></defs><g stroke-width="2" stroke="url(#uundulate-grad)" fill="none"><path d="M674.3630186253238 359.0684731452767C683.4269563881104 494.90034601013826 594.277455286991 678.4574578428443 500.568773169063 722.6826186401398C406.8600910511352 766.9077794374355 302.64814228112937 634.3569343371757 224.56134445926978 571.3492449722951C146.47454663741007 508.3415556074143 130.11728032877824 485.661504613636 125.7521436241359 420.24570968871296C121.38700691949356 354.82991476378993 134.58582821791316 330.1776128326461 203.60868827698647 257.353429332665C272.63154833605984 184.52924583268378 358.98805308511703 49.49899476117673 457.0618719076872 70.68962888880412C555.1356907302575 91.88026301643146 665.299080862537 223.23660028041513 674.3630186253238 359.0684731452767C683.4269563881104 494.90034601013826 594.277455286991 678.4574578428443 500.568773169063 722.6826186401398 "></path><path d="M661.8919723241727 360.9290206749836C670.5439129159236 490.58671750053327 585.4466618648551 665.8003242499344 495.997465297742 708.0152504655348C406.54826873062905 750.2301766811352 307.07322672289627 623.7043699945236 232.5358288020302 563.5606665098646C157.99843088116415 503.41696302520586 142.3846766774701 481.7678234402356 138.21795527758428 419.3254737391728C134.0512338776984 356.8831240381098 146.65010875346252 333.35138128565427 212.535566082578 263.83738794476324C278.42102341169345 194.32339460387215 360.852232490339 65.43088221743363 454.46815045733774 85.65830570289614C548.0840684243366 105.8857291883586 653.2400317324218 231.27132384943388 661.8919723241727 360.9290206749836C670.5439129159236 490.58671750053327 585.4466618648551 665.8003242499344 495.997465297742 708.0152504655348 "></path><path d="M649.4209260230216 362.78953768711233C657.6608694437367 486.27305847335015 576.615868442719 653.1431601394464 491.426157426421 693.3478517733515C406.2364464101229 733.5525434072567 311.49831116466305 613.0517751342933 240.51031314479064 555.7720575298563C169.52231512491824 498.4923399254192 154.65207302616204 477.87411174925717 150.68376693103266 418.40520727205444C146.71546083590323 358.9363027948517 158.71438928901193 336.52511922108454 221.46244388816956 270.3213160392835C284.2104984873271 204.11751285748244 362.7164118955609 81.36273915611241 451.8744290069884 100.62695199940998C541.0324461184159 119.89116484270761 641.1809826023064 239.30601690087457 649.4209260230216 362.78953768711233C657.6608694437367 486.27305847335015 576.615868442719 653.1431601394464 491.426157426421 693.3478517733515 "></path><path d="M636.9498949806596 364.65002418166296C644.7778412303389 481.9593689285888 567.7850902793721 640.4859655113804 486.854864813889 678.6804225635902C405.9246393484058 716.8748796158001 315.923410865219 602.3991497564849 248.4848127463402 547.9834180322698C181.04621462746144 493.5676863080546 166.91948463364298 473.9803695407005 163.14959384327005 417.48491028735793C159.37970305289713 360.98945103401536 170.7786850833504 339.69882663893645 230.38933695255014 276.8052136162255C289.9999888217498 213.91160059351455 364.58060655957195 97.294565577213 449.280722815428 115.59556777834575C533.9808390712841 133.89656997947844 629.1219487309802 247.34067943473713 636.9498949806596 364.65002418166296C644.7778412303389 481.9593689285888 567.7850902793721 640.4859655113804 486.854864813889 678.6804225635902 "></path><path d="M624.4788181619303 366.5105411937917C631.894767240574 477.64570990140567 558.954266339658 627.8288014008924 482.28352642498976 664.0130238714071C405.6127865103216 700.1972463419216 320.34846478940767 591.7465548962546 256.45926657152256 540.1948090522612C192.5700683536374 488.6430632082679 179.1868504647568 470.0866578497221 175.6153749791403 416.56464382023955C172.04389949352384 363.04262979075713 182.8429351013217 342.8725645743666 239.31618424056353 283.28914171074575C295.7894333798053 223.70571884712479 366.4447554472158 113.22642251589178 446.68697084750056 130.5642140748596C526.9291862477852 147.90200563382746 617.0628690832867 255.37537248617775 624.4788181619303 366.5105411937917C631.894767240574 477.64570990140567 558.954266339658 627.8288014008924 482.28352642498976 664.0130238714071 "></path><path d="M612.0078023783574 368.3711192410767C619.0117542859653 473.3321119093789 550.1235034351002 615.1716983255608 477.7122490712469 649.3456862143801C405.30099470739356 683.5196741031995 324.7735797487527 581.0940210711806 264.4337814318611 532.4062611074091C204.0939831149696 483.7185011436376 191.4542773310268 466.1930071938998 188.08121715016682 415.6444383882774C184.7081569693068 365.09586958265515 194.90724615444924 346.046363544953 248.24309256373317 289.77313084042214C301.5789389730171 233.49989813589127 368.3089653700158 129.1583404897268 444.09327991472924 145.53292140652974C519.8775944594424 161.90750232333272 605.0038504707495 263.41012657277463 612.0078023783574 368.3711192410767C619.0117542859653 473.3321119093789 550.1235034351002 615.1716983255608 477.7122490712469 649.3456862143801 "></path><path d="M599.5367408184172 370.2315904768383C606.1286955549895 469.0184071058286 541.2926947541753 602.5144884387057 473.14092594113674 634.6782417458297C404.9891571280983 666.8419950529538 329.1986489317305 570.4413804345832 272.40825051583255 524.6176063510334C215.61785209993462 478.7938322674838 203.7216584209296 462.2992497265542 200.5470135448261 414.72412614479197C197.37236866872257 367.14900256302985 206.97151143120954 349.2200557040161 257.1699551105356 296.2570131585752C307.36839878986166 243.29397061313438 370.17312951644874 145.09015165203834 441.4995432055907 160.50152192667645C512.8259568947326 175.9128922013145 592.9447860818452 271.4447738478481 599.5367408184172 370.2315904768383C606.1286955549895 469.0184071058286 541.2926947541753 602.5144884387057 473.14092594113674 634.6782417458297 "></path><path d="M587.0656792584771 372.09209223017797C593.2456368240134 464.7047328198563 532.4618860732502 589.8573090694285 468.5696028110267 620.0108277948575C404.6773195488031 650.1643465202864 333.62371811470825 559.7887703155637 280.3827195998039 516.828982112236C227.14172108489964 473.8691939089082 215.98903951083247 458.4055227767866 213.0128099394854 413.8038444188845C210.03658036813835 369.20216606098256 219.0357767079699 352.39377838065707 266.0968176573381 302.74092599430634C313.15785860670627 253.0880736079556 372.03729366288167 161.02199333192806 438.9058064964522 175.47015296440122C505.77431933002276 189.91831259687444 580.8857216929408 279.4794516404997 587.0656792584771 372.09209223017797C593.2456368240134 464.7047328198563 532.4618860732502 589.8573090694285 468.5696028110267 620.0108277948575 "></path><path d="M574.5946634749041 373.95263975988496C580.3626238694048 460.3911043102513 523.6311231686924 577.2001754765188 463.9983254572837 605.3434596202524C404.36552774587517 633.4867437639859 338.0488330740532 549.1362059729115 288.35723446014254 509.04040364980574C238.66563584623185 468.94460132669974 228.25646637710247 454.5118416033863 225.47865211051192 412.8836084693444C222.70083784392136 371.25537533530246 231.10008776109743 355.5675468336654 275.0237259805077 309.22488460640466C318.94736419991807 262.88222237914397 373.90150358568167 176.9538807881849 436.3121155636809 190.43882977849324C498.7227275416801 203.92377876880158 568.8267030804036 287.51417520951844 574.5946634749041 373.95263975988496C580.3626238694048 460.3911043102513 523.6311231686924 577.2001754765188 463.9983254572837 605.3434596202524 "></path><path d="M562.1235866561749 375.81321780716985C567.4795498796398 456.07750631822444 514.8002992289782 564.5430724011871 459.4269870683846 590.6761219632255C404.05367490779076 616.8091715252638 342.47388699824194 538.4836721478375 296.33168828532484 501.2518557049534C250.1894895724078 464.0200392620694 240.52383220821628 450.618190947564 237.94443324638218 411.96340303738225C235.36503428454807 373.3086151272005 243.16433777906872 358.7413458042518 283.9505732685211 315.7088737360811C324.73680875797356 272.67640166791045 375.76565247332553 192.88579876201993 433.71836359575343 205.4075371101634C491.6710747181812 217.9292754583068 556.76762343271 295.5489292961154 562.1235866561749 375.81321780716985C567.4795498796398 456.07750631822444 514.8002992289782 564.5430724011871 459.4269870683846 590.6761219632255 "></path><path d="M549.6525556138129 377.67371956050954C554.5965216662421 451.76383203225225 505.9695210656314 551.8858930319101 454.8556944558526 576.0087080122531C403.7418678460738 600.1315229925963 346.89898669879784 527.8310620288182 304.3061878868744 493.463231466156C261.71338907495095 459.0954009034938 252.79124381569721 446.7244639977964 250.41026015861956 411.0431213114748C248.02927650154197 375.3617786251532 255.22863357340714 361.91506848089284 292.8774663329017 322.19278657181223C330.52629909239624 282.4705046627316 377.6298471373366 208.81764044190965 431.12465740419304 220.37616814788817C484.6194676710495 231.93469585386674 544.7085895613839 303.58360708876694 549.6525556138129 377.67371956050954C554.5965216662421 451.76383203225225 505.9695210656314 551.8858930319101 454.8556944558526 576.0087080122531 "></path><path d="M537.181524571451 379.53423657263835C541.7134934528442 447.45017300506913 497.13874290228455 539.2287289214221 450.28440184332055 561.34130932007C403.43006078435667 583.4538897187177 351.32408639935375 517.1784671685879 312.28068748842395 485.67462248614754C273.2372885774941 454.1707778037071 265.05865542317815 442.830752306818 262.876087070857 410.1228548443564C260.69351871853587 377.41495738189496 267.2929293677456 365.08880641632305 301.80435939728227 328.6767146663325C336.315789426819 292.26462291634186 379.4940418013476 224.74949738058837 428.53095121263266 235.34481444440206C477.5678606239178 245.94013150821576 532.6495556900576 311.61830014020757 537.181524571451 379.53423657263835C541.7134934528442 447.45017300506913 497.13874290228455 539.2287289214221 450.28440184332055 561.34130932007 "></path><path d="M524.7104477527217 381.3947535847671C528.8304194630794 443.136513977886 488.3079189625705 526.5715648109342 445.71306345442144 546.6739106278867C403.1182079462724 566.7762564448393 355.74914032354246 506.5258723083575 320.25514131360626 477.8860135061391C284.76114230367006 449.2461547039205 277.32602125429196 438.9370406158396 275.34186820672727 409.20258837723816C273.3577151591626 379.4681361386368 279.3571793857169 368.2625443517532 310.7312066852957 335.1606427608527C342.1052339848745 302.05874116995216 381.3581906889914 240.68135431926714 425.9371992447052 250.31346074091596C470.5162078004189 259.9455671625647 520.5904760423641 319.6529931916482 524.7104477527217 381.3947535847671C528.8304194630794 443.136513977886 488.3079189625705 526.5715648109342 445.71306345442144 546.6739106278867 "></path><path d="M512.2394167103597 383.2552858556849C515.9473912496815 438.82287020949184 479.47714079922355 513.9144159592353 441.1417708418894 532.0065271944926C402.80640088455533 550.0986384297498 360.17424002409837 495.87329270691635 328.2296409151558 470.0974197849197C296.2850418062132 444.321546862923 289.5934328617729 435.0433441836501 287.80769511896466 408.28233716890884C286.0219573761565 381.52133015416763 291.4214751800554 371.43629754597237 319.6580997496763 341.64458611416194C347.8947243192972 311.85287468235146 383.22238535300244 256.6132265167349 423.3434930531448 265.28212229621886C463.4646007532872 273.9510180757028 508.53144217103795 327.68770150187794 512.2394167103597 383.2552858556849C515.9473912496815 438.82287020949184 479.47714079922355 513.9144159592353 441.1417708418894 532.0065271944926 "></path><path d="M499.7683704092086 385.11581812660273C503.06434777749473 434.5092264410979 470.64634737708764 501.25726710753645 436.57046297056837 517.3391437610985C402.49457856404916 533.4210204146605 364.59932446586527 485.22071310547517 336.20412525791625 462.3088260637003C307.8089260499673 439.3969390219255 301.86082921046483 431.1496477514607 300.27350677241304 407.3620859605796C298.6861843343613 383.5745241696985 303.4857557156048 374.61005074019164 328.5849775552678 348.1285294674712C353.68419939493083 321.6470081947508 385.08656475822437 272.54509871420277 420.74977160279536 280.2507838515218C456.4129784473663 287.95646898884087 496.4723930409226 335.7224098121076 499.7683704092086 385.11581812660273C503.06434777749473 434.5092264410979 470.64634737708764 501.25726710753645 436.57046297056837 517.3391437610985 "></path><path d="M487.2973241080575 386.9763198799425C490.1813043053079 430.19555215512565 461.8155539549516 488.6000877382594 431.99915509924733 502.6717298101262C402.18275624354305 516.743371881993 369.02440890763205 474.56810298645576 344.17860960067674 454.52020182490287C319.33281029372137 434.47230066334987 314.1282255591567 427.25592080169315 312.7393184258614 406.4418042346722C311.35041129256615 385.62768766765123 315.55003625115415 377.7837734168327 337.51185536085933 354.61244230320233C359.4736744705645 331.441111189572 386.9507441634463 288.4769403940925 418.1560501524459 295.21941488924665C449.3613561414455 301.96188938440076 484.41334391080727 343.75708760475925 487.2973241080575 386.9763198799425C490.1813043053079 430.19555215512565 461.8155539549516 488.6000877382594 431.99915509924733 502.6717298101262 "></path><path d="M474.82627780690643 388.83685215086024C477.29826083312105 425.8819083867316 452.9847605328157 475.9429388865605 427.4278472279263 488.004346376732C401.8709339230369 500.0657538669036 373.44949334939895 463.9155233850146 352.15309394343717 446.73160810368347C330.8566945374755 429.54769282235236 326.39562190784864 423.3622243695037 325.2051300793098 405.5215530263429C324.014638250771 387.68088168318206 327.61431678670357 380.9575266110519 346.43873316645085 361.0963856565116C365.2631495461981 341.2352447019713 388.8149235686683 304.40881259156026 415.5623287020965 310.18807644454955C442.30973383552475 315.96734029753884 472.35429478069193 351.79179591498894 474.82627780690643 388.83685215086024C477.29826083312105 425.8819083867316 452.9847605328157 475.9429388865605 427.4278472279263 488.004346376732 "></path><path d="M462.35524676454446 390.69736916298905C464.41523261972327 421.5682493595485 444.15398236946885 463.28577477607257 422.8565546153943 473.3369476845488C401.5591268613198 483.3881205930251 377.87459304995485 453.26292852478423 360.1275935449867 438.942999123675C342.38059404001865 424.62306972256573 338.6630335153296 419.46851267852526 337.6709569915472 404.60128655922455C336.6788804677649 389.73406043992384 339.67861258104205 384.13126454648204 355.3656262308314 367.5803137510318C371.05263988062086 351.0293629555815 390.6791182326793 320.34066953023904 412.9686225105362 325.15672274106345C435.25812678839304 329.97277595188785 460.29526090936565 359.82648896642957 462.35524676454446 390.69736916298905C464.41523261972327 421.5682493595485 444.15398236946885 463.28577477607257 422.8565546153943 473.3369476845488 "></path><path d="M449.88420046339337 392.55790143390686C451.5321891475364 417.2546055911544 435.3231889473329 450.6286259243737 418.2852467440732 458.6695642511547C401.2473045408136 466.7105025779357 382.2996774917217 442.61034892334305 368.1020778877472 431.1544054024556C353.90447828377273 419.6984618815682 350.93042986402145 415.5748162463358 350.1367686449956 403.6810353508953C349.3431074259697 391.78725445545473 351.74289311659146 387.30501774070126 364.29250403642294 374.0642571043411C376.8421149562545 360.8234964679809 392.5432976379012 336.2725417277069 410.37490106018674 340.12538429636635C428.2065044824722 343.9782268650259 448.23621177925037 367.8611972766593 449.88420046339337 392.55790143390686C451.5321891475364 417.2546055911544 435.3231889473329 450.6286259243737 418.2852467440732 458.6695642511547 "></path><path d="M437.41312364466415 394.4184184460356C438.64911515777146 412.94094656397124 426.4923650076188 437.97146181388575 413.7139083551741 444.00216555897146C400.9354517027294 450.0328693040573 386.7247314159104 431.95775406311276 376.0765317129295 423.3657964224472C365.4283320099487 414.77383878178165 363.19779569513526 411.6811045553573 362.60254978086584 402.7607688837769C362.00730386659643 393.8404332121965 363.80714313456275 390.4787556761314 373.2193513244364 380.5481851988613C382.63155951431 370.6176147215911 394.4074465255451 352.2043986663856 407.78114909225917 355.09403059288024C421.1548516589733 357.9836625193749 436.1771321315569 375.89589032809994 437.41312364466415 394.4184184460356C438.64911515777146 412.94094656397124 426.4923650076188 437.97146181388575 413.7139083551741 444.00216555897146 "></path><path d="M424.9420926023022 396.27895071695343C425.7660869443737 408.6273027955772 417.6615868442719 425.3143129621868 409.1426157426421 429.33478212557736C400.6236446410123 433.35525128896785 391.1498311164663 421.3051744616715 384.0510313144791 415.5772027012278C376.95223151249184 409.8492309407841 375.4652073026162 407.7874081231679 375.0683766931033 401.84051767544764C374.67154608359033 395.89362722772734 375.87143892890117 393.65250887035063 382.14624438881697 387.03212855217055C388.4210498487327 380.4117482339904 396.2716411895561 368.13627086385344 405.18744290069884 370.0626921481832C414.1032446118416 371.98911343251297 424.1180982602306 383.9305986383296 424.9420926023022 396.27895071695343C425.7660869443737 408.6273027955772 417.6615868442719 425.3143129621868 409.1426157426421 429.33478212557736 "></path><path d="M412.4710463011511 398.13948298787125C412.88304347218684 404.3136590271831 408.83079342213597 412.65716411048794 404.57130787132104 414.6673986921832C400.31182232050617 416.6776332738785 395.57491555823316 410.6525948602303 392.0255156572395 407.78860898000846C388.4761157562459 404.9246230997866 387.7326036513081 403.8937116909785 387.5341883465516 400.9202664671183C387.33577304179516 397.9468212432582 387.9357194644506 396.82626206456985 391.0731221944085 393.5160719054798C394.2105249243664 390.20588174638976 398.13582059477807 384.0681430613212 402.59372145034945 385.0313537034861C407.0516223059208 385.994564345651 412.05904913011534 391.9653069485594 412.4710463011511 398.13948298787125C412.88304347218684 404.3136590271831 408.83079342213597 412.65716411048794 404.57130787132104 414.6673986921832 "></path></g></svg>