<svg xmlns="http://www.w3.org/2000/svg" version="1.1" xmlns:xlink="http://www.w3.org/1999/xlink" xmlns:svgjs="http://svgjs.dev/svgjs" viewBox="0 0 800 800" opacity="0.8" width="800" height="800"><g stroke-width="3.25" stroke="hsla(0, 0%, 18%, 1.00)" fill="none"><rect width="44.44444444444444" height="7.947368421052632" x="-22.22222222222222" y="-3.973684210526316" stroke="none" fill="hsla(37, 91%, 55%, 1.00)" rx="3.973684210526316" transform="rotate(45, 0, 0)"></rect><rect width="7.947368421052632" height="44.44444444444444" x="-3.973684210526316" y="-22.22222222222222" stroke="none" fill="hsla(37, 91%, 55%, 1.00)" rx="3.973684210526316" transform="rotate(45, 0, 0)"></rect><rect width="44.44444444444444" height="7.947368421052632" x="77.77777777777777" y="-3.973684210526316" stroke="none" fill="hsla(0, 0%, 18%, 1.00)" rx="3.973684210526316" transform="rotate(45, 100, 0)"></rect><rect width="7.947368421052632" height="44.44444444444444" x="96.02631578947368" y="-22.22222222222222" stroke="none" fill="hsla(0, 0%, 18%, 1.00)" rx="3.973684210526316" transform="rotate(45, 100, 0)"></rect><rect width="44.44444444444444" height="7.947368421052632" x="177.77777777777777" y="-3.973684210526316" stroke="none" fill="hsla(37, 91%, 55%, 1.00)" rx="3.973684210526316" transform="rotate(45, 200, 0)"></rect><rect width="7.947368421052632" height="44.44444444444444" x="196.02631578947367" y="-22.22222222222222" stroke="none" fill="hsla(37, 91%, 55%, 1.00)" rx="3.973684210526316" transform="rotate(45, 200, 0)"></rect><rect width="44.44444444444444" height="7.947368421052632" x="277.77777777777777" y="-3.973684210526316" stroke="none" fill="hsla(0, 0%, 18%, 1.00)" rx="3.973684210526316" transform="rotate(45, 300, 0)"></rect><rect width="7.947368421052632" height="44.44444444444444" x="296.0263157894737" y="-22.22222222222222" stroke="none" fill="hsla(0, 0%, 18%, 1.00)" rx="3.973684210526316" transform="rotate(45, 300, 0)"></rect><rect width="44.44444444444444" height="7.947368421052632" x="377.77777777777777" y="-3.973684210526316" stroke="none" fill="hsla(37, 91%, 55%, 1.00)" rx="3.973684210526316" transform="rotate(45, 400, 0)"></rect><rect width="7.947368421052632" height="44.44444444444444" x="396.0263157894737" y="-22.22222222222222" stroke="none" fill="hsla(37, 91%, 55%, 1.00)" rx="3.973684210526316" transform="rotate(45, 400, 0)"></rect><rect width="44.44444444444444" height="7.947368421052632" x="477.77777777777777" y="-3.973684210526316" stroke="none" fill="hsla(0, 0%, 18%, 1.00)" rx="3.973684210526316" transform="rotate(45, 500, 0)"></rect><rect width="7.947368421052632" height="44.44444444444444" x="496.0263157894737" y="-22.22222222222222" stroke="none" fill="hsla(0, 0%, 18%, 1.00)" rx="3.973684210526316" transform="rotate(45, 500, 0)"></rect><rect width="44.44444444444444" height="7.947368421052632" x="577.7777777777778" y="-3.973684210526316" stroke="none" fill="hsla(37, 91%, 55%, 1.00)" rx="3.973684210526316" transform="rotate(45, 600, 0)"></rect><rect width="7.947368421052632" height="44.44444444444444" x="596.0263157894736" y="-22.22222222222222" stroke="none" fill="hsla(37, 91%, 55%, 1.00)" rx="3.973684210526316" transform="rotate(45, 600, 0)"></rect><rect width="44.44444444444444" height="7.947368421052632" x="677.7777777777778" y="-3.973684210526316" stroke="none" fill="hsla(0, 0%, 18%, 1.00)" rx="3.973684210526316" transform="rotate(45, 700, 0)"></rect><rect width="7.947368421052632" height="44.44444444444444" x="696.0263157894736" y="-22.22222222222222" stroke="none" fill="hsla(0, 0%, 18%, 1.00)" rx="3.973684210526316" transform="rotate(45, 700, 0)"></rect><rect width="44.44444444444444" height="7.947368421052632" x="777.7777777777778" y="-3.973684210526316" stroke="none" fill="hsla(37, 91%, 55%, 1.00)" rx="3.973684210526316" transform="rotate(45, 800, 0)"></rect><rect width="7.947368421052632" height="44.44444444444444" x="796.0263157894736" y="-22.22222222222222" stroke="none" fill="hsla(37, 91%, 55%, 1.00)" rx="3.973684210526316" transform="rotate(45, 800, 0)"></rect><rect width="44.44444444444444" height="7.947368421052632" x="-22.22222222222222" y="84.91520467836257" stroke="none" fill="hsla(0, 0%, 18%, 1.00)" rx="3.973684210526316" transform="rotate(45, 0, 88.88888888888889)"></rect><rect width="7.947368421052632" height="44.44444444444444" x="-3.973684210526316" y="66.66666666666666" stroke="none" fill="hsla(0, 0%, 18%, 1.00)" rx="3.973684210526316" transform="rotate(45, 0, 88.88888888888889)"></rect><rect width="44.44444444444444" height="7.947368421052632" x="77.77777777777777" y="84.91520467836257" stroke="none" fill="hsla(37, 91%, 55%, 1.00)" rx="3.973684210526316" transform="rotate(45, 100, 88.88888888888889)"></rect><rect width="7.947368421052632" height="44.44444444444444" x="96.02631578947368" y="66.66666666666666" stroke="none" fill="hsla(37, 91%, 55%, 1.00)" rx="3.973684210526316" transform="rotate(45, 100, 88.88888888888889)"></rect><rect width="44.44444444444444" height="7.947368421052632" x="177.77777777777777" y="84.91520467836257" stroke="none" fill="hsla(0, 0%, 18%, 1.00)" rx="3.973684210526316" transform="rotate(45, 200, 88.88888888888889)"></rect><rect width="7.947368421052632" height="44.44444444444444" x="196.02631578947367" y="66.66666666666666" stroke="none" fill="hsla(0, 0%, 18%, 1.00)" rx="3.973684210526316" transform="rotate(45, 200, 88.88888888888889)"></rect><rect width="44.44444444444444" height="7.947368421052632" x="277.77777777777777" y="84.91520467836257" stroke="none" fill="hsla(37, 91%, 55%, 1.00)" rx="3.973684210526316" transform="rotate(45, 300, 88.88888888888889)"></rect><rect width="7.947368421052632" height="44.44444444444444" x="296.0263157894737" y="66.66666666666666" stroke="none" fill="hsla(37, 91%, 55%, 1.00)" rx="3.973684210526316" transform="rotate(45, 300, 88.88888888888889)"></rect><rect width="44.44444444444444" height="7.947368421052632" x="377.77777777777777" y="84.91520467836257" stroke="none" fill="hsla(0, 0%, 18%, 1.00)" rx="3.973684210526316" transform="rotate(45, 400, 88.88888888888889)"></rect><rect width="7.947368421052632" height="44.44444444444444" x="396.0263157894737" y="66.66666666666666" stroke="none" fill="hsla(0, 0%, 18%, 1.00)" rx="3.973684210526316" transform="rotate(45, 400, 88.88888888888889)"></rect><rect width="44.44444444444444" height="7.947368421052632" x="477.77777777777777" y="84.91520467836257" stroke="none" fill="hsla(37, 91%, 55%, 1.00)" rx="3.973684210526316" transform="rotate(45, 500, 88.88888888888889)"></rect><rect width="7.947368421052632" height="44.44444444444444" x="496.0263157894737" y="66.66666666666666" stroke="none" fill="hsla(37, 91%, 55%, 1.00)" rx="3.973684210526316" transform="rotate(45, 500, 88.88888888888889)"></rect><rect width="44.44444444444444" height="7.947368421052632" x="577.7777777777778" y="84.91520467836257" stroke="none" fill="hsla(0, 0%, 18%, 1.00)" rx="3.973684210526316" transform="rotate(45, 600, 88.88888888888889)"></rect><rect width="7.947368421052632" height="44.44444444444444" x="596.0263157894736" y="66.66666666666666" stroke="none" fill="hsla(0, 0%, 18%, 1.00)" rx="3.973684210526316" transform="rotate(45, 600, 88.88888888888889)"></rect><rect width="44.44444444444444" height="7.947368421052632" x="677.7777777777778" y="84.91520467836257" stroke="none" fill="hsla(37, 91%, 55%, 1.00)" rx="3.973684210526316" transform="rotate(45, 700, 88.88888888888889)"></rect><rect width="7.947368421052632" height="44.44444444444444" x="696.0263157894736" y="66.66666666666666" stroke="none" fill="hsla(37, 91%, 55%, 1.00)" rx="3.973684210526316" transform="rotate(45, 700, 88.88888888888889)"></rect><rect width="44.44444444444444" height="7.947368421052632" x="777.7777777777778" y="84.91520467836257" stroke="none" fill="hsla(0, 0%, 18%, 1.00)" rx="3.973684210526316" transform="rotate(45, 800, 88.88888888888889)"></rect><rect width="7.947368421052632" height="44.44444444444444" x="796.0263157894736" y="66.66666666666666" stroke="none" fill="hsla(0, 0%, 18%, 1.00)" rx="3.973684210526316" transform="rotate(45, 800, 88.88888888888889)"></rect><rect width="44.44444444444444" height="7.947368421052632" x="-22.22222222222222" y="173.80409356725144" stroke="none" fill="hsla(37, 91%, 55%, 1.00)" rx="3.973684210526316" transform="rotate(45, 0, 177.77777777777777)"></rect><rect width="7.947368421052632" height="44.44444444444444" x="-3.973684210526316" y="155.55555555555554" stroke="none" fill="hsla(37, 91%, 55%, 1.00)" rx="3.973684210526316" transform="rotate(45, 0, 177.77777777777777)"></rect><rect width="44.44444444444444" height="7.947368421052632" x="77.77777777777777" y="173.80409356725144" stroke="none" fill="hsla(0, 0%, 18%, 1.00)" rx="3.973684210526316" transform="rotate(45, 100, 177.77777777777777)"></rect><rect width="7.947368421052632" height="44.44444444444444" x="96.02631578947368" y="155.55555555555554" stroke="none" fill="hsla(0, 0%, 18%, 1.00)" rx="3.973684210526316" transform="rotate(45, 100, 177.77777777777777)"></rect><rect width="44.44444444444444" height="7.947368421052632" x="177.77777777777777" y="173.80409356725144" stroke="none" fill="hsla(37, 91%, 55%, 1.00)" rx="3.973684210526316" transform="rotate(45, 200, 177.77777777777777)"></rect><rect width="7.947368421052632" height="44.44444444444444" x="196.02631578947367" y="155.55555555555554" stroke="none" fill="hsla(37, 91%, 55%, 1.00)" rx="3.973684210526316" transform="rotate(45, 200, 177.77777777777777)"></rect><rect width="44.44444444444444" height="7.947368421052632" x="277.77777777777777" y="173.80409356725144" stroke="none" fill="hsla(0, 0%, 18%, 1.00)" rx="3.973684210526316" transform="rotate(45, 300, 177.77777777777777)"></rect><rect width="7.947368421052632" height="44.44444444444444" x="296.0263157894737" y="155.55555555555554" stroke="none" fill="hsla(0, 0%, 18%, 1.00)" rx="3.973684210526316" transform="rotate(45, 300, 177.77777777777777)"></rect><rect width="44.44444444444444" height="7.947368421052632" x="377.77777777777777" y="173.80409356725144" stroke="none" fill="hsla(37, 91%, 55%, 1.00)" rx="3.973684210526316" transform="rotate(45, 400, 177.77777777777777)"></rect><rect width="7.947368421052632" height="44.44444444444444" x="396.0263157894737" y="155.55555555555554" stroke="none" fill="hsla(37, 91%, 55%, 1.00)" rx="3.973684210526316" transform="rotate(45, 400, 177.77777777777777)"></rect><rect width="44.44444444444444" height="7.947368421052632" x="477.77777777777777" y="173.80409356725144" stroke="none" fill="hsla(0, 0%, 18%, 1.00)" rx="3.973684210526316" transform="rotate(45, 500, 177.77777777777777)"></rect><rect width="7.947368421052632" height="44.44444444444444" x="496.0263157894737" y="155.55555555555554" stroke="none" fill="hsla(0, 0%, 18%, 1.00)" rx="3.973684210526316" transform="rotate(45, 500, 177.77777777777777)"></rect><rect width="44.44444444444444" height="7.947368421052632" x="577.7777777777778" y="173.80409356725144" stroke="none" fill="hsla(37, 91%, 55%, 1.00)" rx="3.973684210526316" transform="rotate(45, 600, 177.77777777777777)"></rect><rect width="7.947368421052632" height="44.44444444444444" x="596.0263157894736" y="155.55555555555554" stroke="none" fill="hsla(37, 91%, 55%, 1.00)" rx="3.973684210526316" transform="rotate(45, 600, 177.77777777777777)"></rect><rect width="44.44444444444444" height="7.947368421052632" x="677.7777777777778" y="173.80409356725144" stroke="none" fill="hsla(0, 0%, 18%, 1.00)" rx="3.973684210526316" transform="rotate(45, 700, 177.77777777777777)"></rect><rect width="7.947368421052632" height="44.44444444444444" x="696.0263157894736" y="155.55555555555554" stroke="none" fill="hsla(0, 0%, 18%, 1.00)" rx="3.973684210526316" transform="rotate(45, 700, 177.77777777777777)"></rect><rect width="44.44444444444444" height="7.947368421052632" x="777.7777777777778" y="173.80409356725144" stroke="none" fill="hsla(37, 91%, 55%, 1.00)" rx="3.973684210526316" transform="rotate(45, 800, 177.77777777777777)"></rect><rect width="7.947368421052632" height="44.44444444444444" x="796.0263157894736" y="155.55555555555554" stroke="none" fill="hsla(37, 91%, 55%, 1.00)" rx="3.973684210526316" transform="rotate(45, 800, 177.77777777777777)"></rect><rect width="44.44444444444444" height="7.947368421052632" x="-22.22222222222222" y="262.6929824561403" stroke="none" fill="hsla(0, 0%, 18%, 1.00)" rx="3.973684210526316" transform="rotate(45, 0, 266.66666666666663)"></rect><rect width="7.947368421052632" height="44.44444444444444" x="-3.973684210526316" y="244.4444444444444" stroke="none" fill="hsla(0, 0%, 18%, 1.00)" rx="3.973684210526316" transform="rotate(45, 0, 266.66666666666663)"></rect><rect width="44.44444444444444" height="7.947368421052632" x="77.77777777777777" y="262.6929824561403" stroke="none" fill="hsla(37, 91%, 55%, 1.00)" rx="3.973684210526316" transform="rotate(45, 100, 266.66666666666663)"></rect><rect width="7.947368421052632" height="44.44444444444444" x="96.02631578947368" y="244.4444444444444" stroke="none" fill="hsla(37, 91%, 55%, 1.00)" rx="3.973684210526316" transform="rotate(45, 100, 266.66666666666663)"></rect><rect width="44.44444444444444" height="7.947368421052632" x="177.77777777777777" y="262.6929824561403" stroke="none" fill="hsla(0, 0%, 18%, 1.00)" rx="3.973684210526316" transform="rotate(45, 200, 266.66666666666663)"></rect><rect width="7.947368421052632" height="44.44444444444444" x="196.02631578947367" y="244.4444444444444" stroke="none" fill="hsla(0, 0%, 18%, 1.00)" rx="3.973684210526316" transform="rotate(45, 200, 266.66666666666663)"></rect><rect width="44.44444444444444" height="7.947368421052632" x="277.77777777777777" y="262.6929824561403" stroke="none" fill="hsla(37, 91%, 55%, 1.00)" rx="3.973684210526316" transform="rotate(45, 300, 266.66666666666663)"></rect><rect width="7.947368421052632" height="44.44444444444444" x="296.0263157894737" y="244.4444444444444" stroke="none" fill="hsla(37, 91%, 55%, 1.00)" rx="3.973684210526316" transform="rotate(45, 300, 266.66666666666663)"></rect><rect width="44.44444444444444" height="7.947368421052632" x="377.77777777777777" y="262.6929824561403" stroke="none" fill="hsla(0, 0%, 18%, 1.00)" rx="3.973684210526316" transform="rotate(45, 400, 266.66666666666663)"></rect><rect width="7.947368421052632" height="44.44444444444444" x="396.0263157894737" y="244.4444444444444" stroke="none" fill="hsla(0, 0%, 18%, 1.00)" rx="3.973684210526316" transform="rotate(45, 400, 266.66666666666663)"></rect><rect width="44.44444444444444" height="7.947368421052632" x="477.77777777777777" y="262.6929824561403" stroke="none" fill="hsla(37, 91%, 55%, 1.00)" rx="3.973684210526316" transform="rotate(45, 500, 266.66666666666663)"></rect><rect width="7.947368421052632" height="44.44444444444444" x="496.0263157894737" y="244.4444444444444" stroke="none" fill="hsla(37, 91%, 55%, 1.00)" rx="3.973684210526316" transform="rotate(45, 500, 266.66666666666663)"></rect><rect width="44.44444444444444" height="7.947368421052632" x="577.7777777777778" y="262.6929824561403" stroke="none" fill="hsla(0, 0%, 18%, 1.00)" rx="3.973684210526316" transform="rotate(45, 600, 266.66666666666663)"></rect><rect width="7.947368421052632" height="44.44444444444444" x="596.0263157894736" y="244.4444444444444" stroke="none" fill="hsla(0, 0%, 18%, 1.00)" rx="3.973684210526316" transform="rotate(45, 600, 266.66666666666663)"></rect><rect width="44.44444444444444" height="7.947368421052632" x="677.7777777777778" y="262.6929824561403" stroke="none" fill="hsla(37, 91%, 55%, 1.00)" rx="3.973684210526316" transform="rotate(45, 700, 266.66666666666663)"></rect><rect width="7.947368421052632" height="44.44444444444444" x="696.0263157894736" y="244.4444444444444" stroke="none" fill="hsla(37, 91%, 55%, 1.00)" rx="3.973684210526316" transform="rotate(45, 700, 266.66666666666663)"></rect><rect width="44.44444444444444" height="7.947368421052632" x="777.7777777777778" y="262.6929824561403" stroke="none" fill="hsla(0, 0%, 18%, 1.00)" rx="3.973684210526316" transform="rotate(45, 800, 266.66666666666663)"></rect><rect width="7.947368421052632" height="44.44444444444444" x="796.0263157894736" y="244.4444444444444" stroke="none" fill="hsla(0, 0%, 18%, 1.00)" rx="3.973684210526316" transform="rotate(45, 800, 266.66666666666663)"></rect><rect width="44.44444444444444" height="7.947368421052632" x="-22.22222222222222" y="351.58187134502924" stroke="none" fill="hsla(37, 91%, 55%, 1.00)" rx="3.973684210526316" transform="rotate(45, 0, 355.55555555555554)"></rect><rect width="7.947368421052632" height="44.44444444444444" x="-3.973684210526316" y="333.3333333333333" stroke="none" fill="hsla(37, 91%, 55%, 1.00)" rx="3.973684210526316" transform="rotate(45, 0, 355.55555555555554)"></rect><rect width="44.44444444444444" height="7.947368421052632" x="77.77777777777777" y="351.58187134502924" stroke="none" fill="hsla(0, 0%, 18%, 1.00)" rx="3.973684210526316" transform="rotate(45, 100, 355.55555555555554)"></rect><rect width="7.947368421052632" height="44.44444444444444" x="96.02631578947368" y="333.3333333333333" stroke="none" fill="hsla(0, 0%, 18%, 1.00)" rx="3.973684210526316" transform="rotate(45, 100, 355.55555555555554)"></rect><rect width="44.44444444444444" height="7.947368421052632" x="177.77777777777777" y="351.58187134502924" stroke="none" fill="hsla(37, 91%, 55%, 1.00)" rx="3.973684210526316" transform="rotate(45, 200, 355.55555555555554)"></rect><rect width="7.947368421052632" height="44.44444444444444" x="196.02631578947367" y="333.3333333333333" stroke="none" fill="hsla(37, 91%, 55%, 1.00)" rx="3.973684210526316" transform="rotate(45, 200, 355.55555555555554)"></rect><rect width="44.44444444444444" height="7.947368421052632" x="277.77777777777777" y="351.58187134502924" stroke="none" fill="hsla(0, 0%, 18%, 1.00)" rx="3.973684210526316" transform="rotate(45, 300, 355.55555555555554)"></rect><rect width="7.947368421052632" height="44.44444444444444" x="296.0263157894737" y="333.3333333333333" stroke="none" fill="hsla(0, 0%, 18%, 1.00)" rx="3.973684210526316" transform="rotate(45, 300, 355.55555555555554)"></rect><rect width="44.44444444444444" height="7.947368421052632" x="377.77777777777777" y="351.58187134502924" stroke="none" fill="hsla(37, 91%, 55%, 1.00)" rx="3.973684210526316" transform="rotate(45, 400, 355.55555555555554)"></rect><rect width="7.947368421052632" height="44.44444444444444" x="396.0263157894737" y="333.3333333333333" stroke="none" fill="hsla(37, 91%, 55%, 1.00)" rx="3.973684210526316" transform="rotate(45, 400, 355.55555555555554)"></rect><rect width="44.44444444444444" height="7.947368421052632" x="477.77777777777777" y="351.58187134502924" stroke="none" fill="hsla(0, 0%, 18%, 1.00)" rx="3.973684210526316" transform="rotate(45, 500, 355.55555555555554)"></rect><rect width="7.947368421052632" height="44.44444444444444" x="496.0263157894737" y="333.3333333333333" stroke="none" fill="hsla(0, 0%, 18%, 1.00)" rx="3.973684210526316" transform="rotate(45, 500, 355.55555555555554)"></rect><rect width="44.44444444444444" height="7.947368421052632" x="577.7777777777778" y="351.58187134502924" stroke="none" fill="hsla(37, 91%, 55%, 1.00)" rx="3.973684210526316" transform="rotate(45, 600, 355.55555555555554)"></rect><rect width="7.947368421052632" height="44.44444444444444" x="596.0263157894736" y="333.3333333333333" stroke="none" fill="hsla(37, 91%, 55%, 1.00)" rx="3.973684210526316" transform="rotate(45, 600, 355.55555555555554)"></rect><rect width="44.44444444444444" height="7.947368421052632" x="677.7777777777778" y="351.58187134502924" stroke="none" fill="hsla(0, 0%, 18%, 1.00)" rx="3.973684210526316" transform="rotate(45, 700, 355.55555555555554)"></rect><rect width="7.947368421052632" height="44.44444444444444" x="696.0263157894736" y="333.3333333333333" stroke="none" fill="hsla(0, 0%, 18%, 1.00)" rx="3.973684210526316" transform="rotate(45, 700, 355.55555555555554)"></rect><rect width="44.44444444444444" height="7.947368421052632" x="777.7777777777778" y="351.58187134502924" stroke="none" fill="hsla(37, 91%, 55%, 1.00)" rx="3.973684210526316" transform="rotate(45, 800, 355.55555555555554)"></rect><rect width="7.947368421052632" height="44.44444444444444" x="796.0263157894736" y="333.3333333333333" stroke="none" fill="hsla(37, 91%, 55%, 1.00)" rx="3.973684210526316" transform="rotate(45, 800, 355.55555555555554)"></rect><rect width="44.44444444444444" height="7.947368421052632" x="-22.22222222222222" y="440.47076023391816" stroke="none" fill="hsla(0, 0%, 18%, 1.00)" rx="3.973684210526316" transform="rotate(45, 0, 444.44444444444446)"></rect><rect width="7.947368421052632" height="44.44444444444444" x="-3.973684210526316" y="422.22222222222223" stroke="none" fill="hsla(0, 0%, 18%, 1.00)" rx="3.973684210526316" transform="rotate(45, 0, 444.44444444444446)"></rect><rect width="44.44444444444444" height="7.947368421052632" x="77.77777777777777" y="440.47076023391816" stroke="none" fill="hsla(37, 91%, 55%, 1.00)" rx="3.973684210526316" transform="rotate(45, 100, 444.44444444444446)"></rect><rect width="7.947368421052632" height="44.44444444444444" x="96.02631578947368" y="422.22222222222223" stroke="none" fill="hsla(37, 91%, 55%, 1.00)" rx="3.973684210526316" transform="rotate(45, 100, 444.44444444444446)"></rect><rect width="44.44444444444444" height="7.947368421052632" x="177.77777777777777" y="440.47076023391816" stroke="none" fill="hsla(0, 0%, 18%, 1.00)" rx="3.973684210526316" transform="rotate(45, 200, 444.44444444444446)"></rect><rect width="7.947368421052632" height="44.44444444444444" x="196.02631578947367" y="422.22222222222223" stroke="none" fill="hsla(0, 0%, 18%, 1.00)" rx="3.973684210526316" transform="rotate(45, 200, 444.44444444444446)"></rect><rect width="44.44444444444444" height="7.947368421052632" x="277.77777777777777" y="440.47076023391816" stroke="none" fill="hsla(37, 91%, 55%, 1.00)" rx="3.973684210526316" transform="rotate(45, 300, 444.44444444444446)"></rect><rect width="7.947368421052632" height="44.44444444444444" x="296.0263157894737" y="422.22222222222223" stroke="none" fill="hsla(37, 91%, 55%, 1.00)" rx="3.973684210526316" transform="rotate(45, 300, 444.44444444444446)"></rect><rect width="44.44444444444444" height="7.947368421052632" x="377.77777777777777" y="440.47076023391816" stroke="none" fill="hsla(0, 0%, 18%, 1.00)" rx="3.973684210526316" transform="rotate(45, 400, 444.44444444444446)"></rect><rect width="7.947368421052632" height="44.44444444444444" x="396.0263157894737" y="422.22222222222223" stroke="none" fill="hsla(0, 0%, 18%, 1.00)" rx="3.973684210526316" transform="rotate(45, 400, 444.44444444444446)"></rect><rect width="44.44444444444444" height="7.947368421052632" x="477.77777777777777" y="440.47076023391816" stroke="none" fill="hsla(37, 91%, 55%, 1.00)" rx="3.973684210526316" transform="rotate(45, 500, 444.44444444444446)"></rect><rect width="7.947368421052632" height="44.44444444444444" x="496.0263157894737" y="422.22222222222223" stroke="none" fill="hsla(37, 91%, 55%, 1.00)" rx="3.973684210526316" transform="rotate(45, 500, 444.44444444444446)"></rect><rect width="44.44444444444444" height="7.947368421052632" x="577.7777777777778" y="440.47076023391816" stroke="none" fill="hsla(0, 0%, 18%, 1.00)" rx="3.973684210526316" transform="rotate(45, 600, 444.44444444444446)"></rect><rect width="7.947368421052632" height="44.44444444444444" x="596.0263157894736" y="422.22222222222223" stroke="none" fill="hsla(0, 0%, 18%, 1.00)" rx="3.973684210526316" transform="rotate(45, 600, 444.44444444444446)"></rect><rect width="44.44444444444444" height="7.947368421052632" x="677.7777777777778" y="440.47076023391816" stroke="none" fill="hsla(37, 91%, 55%, 1.00)" rx="3.973684210526316" transform="rotate(45, 700, 444.44444444444446)"></rect><rect width="7.947368421052632" height="44.44444444444444" x="696.0263157894736" y="422.22222222222223" stroke="none" fill="hsla(37, 91%, 55%, 1.00)" rx="3.973684210526316" transform="rotate(45, 700, 444.44444444444446)"></rect><rect width="44.44444444444444" height="7.947368421052632" x="777.7777777777778" y="440.47076023391816" stroke="none" fill="hsla(0, 0%, 18%, 1.00)" rx="3.973684210526316" transform="rotate(45, 800, 444.44444444444446)"></rect><rect width="7.947368421052632" height="44.44444444444444" x="796.0263157894736" y="422.22222222222223" stroke="none" fill="hsla(0, 0%, 18%, 1.00)" rx="3.973684210526316" transform="rotate(45, 800, 444.44444444444446)"></rect><rect width="44.44444444444444" height="7.947368421052632" x="-22.22222222222222" y="529.359649122807" stroke="none" fill="hsla(37, 91%, 55%, 1.00)" rx="3.973684210526316" transform="rotate(45, 0, 533.3333333333334)"></rect><rect width="7.947368421052632" height="44.44444444444444" x="-3.973684210526316" y="511.11111111111114" stroke="none" fill="hsla(37, 91%, 55%, 1.00)" rx="3.973684210526316" transform="rotate(45, 0, 533.3333333333334)"></rect><rect width="44.44444444444444" height="7.947368421052632" x="77.77777777777777" y="529.359649122807" stroke="none" fill="hsla(0, 0%, 18%, 1.00)" rx="3.973684210526316" transform="rotate(45, 100, 533.3333333333334)"></rect><rect width="7.947368421052632" height="44.44444444444444" x="96.02631578947368" y="511.11111111111114" stroke="none" fill="hsla(0, 0%, 18%, 1.00)" rx="3.973684210526316" transform="rotate(45, 100, 533.3333333333334)"></rect><rect width="44.44444444444444" height="7.947368421052632" x="177.77777777777777" y="529.359649122807" stroke="none" fill="hsla(37, 91%, 55%, 1.00)" rx="3.973684210526316" transform="rotate(45, 200, 533.3333333333334)"></rect><rect width="7.947368421052632" height="44.44444444444444" x="196.02631578947367" y="511.11111111111114" stroke="none" fill="hsla(37, 91%, 55%, 1.00)" rx="3.973684210526316" transform="rotate(45, 200, 533.3333333333334)"></rect><rect width="44.44444444444444" height="7.947368421052632" x="277.77777777777777" y="529.359649122807" stroke="none" fill="hsla(0, 0%, 18%, 1.00)" rx="3.973684210526316" transform="rotate(45, 300, 533.3333333333334)"></rect><rect width="7.947368421052632" height="44.44444444444444" x="296.0263157894737" y="511.11111111111114" stroke="none" fill="hsla(0, 0%, 18%, 1.00)" rx="3.973684210526316" transform="rotate(45, 300, 533.3333333333334)"></rect><rect width="44.44444444444444" height="7.947368421052632" x="377.77777777777777" y="529.359649122807" stroke="none" fill="hsla(37, 91%, 55%, 1.00)" rx="3.973684210526316" transform="rotate(45, 400, 533.3333333333334)"></rect><rect width="7.947368421052632" height="44.44444444444444" x="396.0263157894737" y="511.11111111111114" stroke="none" fill="hsla(37, 91%, 55%, 1.00)" rx="3.973684210526316" transform="rotate(45, 400, 533.3333333333334)"></rect><rect width="44.44444444444444" height="7.947368421052632" x="477.77777777777777" y="529.359649122807" stroke="none" fill="hsla(0, 0%, 18%, 1.00)" rx="3.973684210526316" transform="rotate(45, 500, 533.3333333333334)"></rect><rect width="7.947368421052632" height="44.44444444444444" x="496.0263157894737" y="511.11111111111114" stroke="none" fill="hsla(0, 0%, 18%, 1.00)" rx="3.973684210526316" transform="rotate(45, 500, 533.3333333333334)"></rect><rect width="44.44444444444444" height="7.947368421052632" x="577.7777777777778" y="529.359649122807" stroke="none" fill="hsla(37, 91%, 55%, 1.00)" rx="3.973684210526316" transform="rotate(45, 600, 533.3333333333334)"></rect><rect width="7.947368421052632" height="44.44444444444444" x="596.0263157894736" y="511.11111111111114" stroke="none" fill="hsla(37, 91%, 55%, 1.00)" rx="3.973684210526316" transform="rotate(45, 600, 533.3333333333334)"></rect><rect width="44.44444444444444" height="7.947368421052632" x="677.7777777777778" y="529.359649122807" stroke="none" fill="hsla(0, 0%, 18%, 1.00)" rx="3.973684210526316" transform="rotate(45, 700, 533.3333333333334)"></rect><rect width="7.947368421052632" height="44.44444444444444" x="696.0263157894736" y="511.11111111111114" stroke="none" fill="hsla(0, 0%, 18%, 1.00)" rx="3.973684210526316" transform="rotate(45, 700, 533.3333333333334)"></rect><rect width="44.44444444444444" height="7.947368421052632" x="777.7777777777778" y="529.359649122807" stroke="none" fill="hsla(37, 91%, 55%, 1.00)" rx="3.973684210526316" transform="rotate(45, 800, 533.3333333333334)"></rect><rect width="7.947368421052632" height="44.44444444444444" x="796.0263157894736" y="511.11111111111114" stroke="none" fill="hsla(37, 91%, 55%, 1.00)" rx="3.973684210526316" transform="rotate(45, 800, 533.3333333333334)"></rect><rect width="44.44444444444444" height="7.947368421052632" x="-22.22222222222222" y="618.2485380116959" stroke="none" fill="hsla(0, 0%, 18%, 1.00)" rx="3.973684210526316" transform="rotate(45, 0, 622.2222222222223)"></rect><rect width="7.947368421052632" height="44.44444444444444" x="-3.973684210526316" y="600.0000000000001" stroke="none" fill="hsla(0, 0%, 18%, 1.00)" rx="3.973684210526316" transform="rotate(45, 0, 622.2222222222223)"></rect><rect width="44.44444444444444" height="7.947368421052632" x="77.77777777777777" y="618.2485380116959" stroke="none" fill="hsla(37, 91%, 55%, 1.00)" rx="3.973684210526316" transform="rotate(45, 100, 622.2222222222223)"></rect><rect width="7.947368421052632" height="44.44444444444444" x="96.02631578947368" y="600.0000000000001" stroke="none" fill="hsla(37, 91%, 55%, 1.00)" rx="3.973684210526316" transform="rotate(45, 100, 622.2222222222223)"></rect><rect width="44.44444444444444" height="7.947368421052632" x="177.77777777777777" y="618.2485380116959" stroke="none" fill="hsla(0, 0%, 18%, 1.00)" rx="3.973684210526316" transform="rotate(45, 200, 622.2222222222223)"></rect><rect width="7.947368421052632" height="44.44444444444444" x="196.02631578947367" y="600.0000000000001" stroke="none" fill="hsla(0, 0%, 18%, 1.00)" rx="3.973684210526316" transform="rotate(45, 200, 622.2222222222223)"></rect><rect width="44.44444444444444" height="7.947368421052632" x="277.77777777777777" y="618.2485380116959" stroke="none" fill="hsla(37, 91%, 55%, 1.00)" rx="3.973684210526316" transform="rotate(45, 300, 622.2222222222223)"></rect><rect width="7.947368421052632" height="44.44444444444444" x="296.0263157894737" y="600.0000000000001" stroke="none" fill="hsla(37, 91%, 55%, 1.00)" rx="3.973684210526316" transform="rotate(45, 300, 622.2222222222223)"></rect><rect width="44.44444444444444" height="7.947368421052632" x="377.77777777777777" y="618.2485380116959" stroke="none" fill="hsla(0, 0%, 18%, 1.00)" rx="3.973684210526316" transform="rotate(45, 400, 622.2222222222223)"></rect><rect width="7.947368421052632" height="44.44444444444444" x="396.0263157894737" y="600.0000000000001" stroke="none" fill="hsla(0, 0%, 18%, 1.00)" rx="3.973684210526316" transform="rotate(45, 400, 622.2222222222223)"></rect><rect width="44.44444444444444" height="7.947368421052632" x="477.77777777777777" y="618.2485380116959" stroke="none" fill="hsla(37, 91%, 55%, 1.00)" rx="3.973684210526316" transform="rotate(45, 500, 622.2222222222223)"></rect><rect width="7.947368421052632" height="44.44444444444444" x="496.0263157894737" y="600.0000000000001" stroke="none" fill="hsla(37, 91%, 55%, 1.00)" rx="3.973684210526316" transform="rotate(45, 500, 622.2222222222223)"></rect><rect width="44.44444444444444" height="7.947368421052632" x="577.7777777777778" y="618.2485380116959" stroke="none" fill="hsla(0, 0%, 18%, 1.00)" rx="3.973684210526316" transform="rotate(45, 600, 622.2222222222223)"></rect><rect width="7.947368421052632" height="44.44444444444444" x="596.0263157894736" y="600.0000000000001" stroke="none" fill="hsla(0, 0%, 18%, 1.00)" rx="3.973684210526316" transform="rotate(45, 600, 622.2222222222223)"></rect><rect width="44.44444444444444" height="7.947368421052632" x="677.7777777777778" y="618.2485380116959" stroke="none" fill="hsla(37, 91%, 55%, 1.00)" rx="3.973684210526316" transform="rotate(45, 700, 622.2222222222223)"></rect><rect width="7.947368421052632" height="44.44444444444444" x="696.0263157894736" y="600.0000000000001" stroke="none" fill="hsla(37, 91%, 55%, 1.00)" rx="3.973684210526316" transform="rotate(45, 700, 622.2222222222223)"></rect><rect width="44.44444444444444" height="7.947368421052632" x="777.7777777777778" y="618.2485380116959" stroke="none" fill="hsla(0, 0%, 18%, 1.00)" rx="3.973684210526316" transform="rotate(45, 800, 622.2222222222223)"></rect><rect width="7.947368421052632" height="44.44444444444444" x="796.0263157894736" y="600.0000000000001" stroke="none" fill="hsla(0, 0%, 18%, 1.00)" rx="3.973684210526316" transform="rotate(45, 800, 622.2222222222223)"></rect><rect width="44.44444444444444" height="7.947368421052632" x="-22.22222222222222" y="707.1374269005848" stroke="none" fill="hsla(37, 91%, 55%, 1.00)" rx="3.973684210526316" transform="rotate(45, 0, 711.1111111111112)"></rect><rect width="7.947368421052632" height="44.44444444444444" x="-3.973684210526316" y="688.888888888889" stroke="none" fill="hsla(37, 91%, 55%, 1.00)" rx="3.973684210526316" transform="rotate(45, 0, 711.1111111111112)"></rect><rect width="44.44444444444444" height="7.947368421052632" x="77.77777777777777" y="707.1374269005848" stroke="none" fill="hsla(0, 0%, 18%, 1.00)" rx="3.973684210526316" transform="rotate(45, 100, 711.1111111111112)"></rect><rect width="7.947368421052632" height="44.44444444444444" x="96.02631578947368" y="688.888888888889" stroke="none" fill="hsla(0, 0%, 18%, 1.00)" rx="3.973684210526316" transform="rotate(45, 100, 711.1111111111112)"></rect><rect width="44.44444444444444" height="7.947368421052632" x="177.77777777777777" y="707.1374269005848" stroke="none" fill="hsla(37, 91%, 55%, 1.00)" rx="3.973684210526316" transform="rotate(45, 200, 711.1111111111112)"></rect><rect width="7.947368421052632" height="44.44444444444444" x="196.02631578947367" y="688.888888888889" stroke="none" fill="hsla(37, 91%, 55%, 1.00)" rx="3.973684210526316" transform="rotate(45, 200, 711.1111111111112)"></rect><rect width="44.44444444444444" height="7.947368421052632" x="277.77777777777777" y="707.1374269005848" stroke="none" fill="hsla(0, 0%, 18%, 1.00)" rx="3.973684210526316" transform="rotate(45, 300, 711.1111111111112)"></rect><rect width="7.947368421052632" height="44.44444444444444" x="296.0263157894737" y="688.888888888889" stroke="none" fill="hsla(0, 0%, 18%, 1.00)" rx="3.973684210526316" transform="rotate(45, 300, 711.1111111111112)"></rect><rect width="44.44444444444444" height="7.947368421052632" x="377.77777777777777" y="707.1374269005848" stroke="none" fill="hsla(37, 91%, 55%, 1.00)" rx="3.973684210526316" transform="rotate(45, 400, 711.1111111111112)"></rect><rect width="7.947368421052632" height="44.44444444444444" x="396.0263157894737" y="688.888888888889" stroke="none" fill="hsla(37, 91%, 55%, 1.00)" rx="3.973684210526316" transform="rotate(45, 400, 711.1111111111112)"></rect><rect width="44.44444444444444" height="7.947368421052632" x="477.77777777777777" y="707.1374269005848" stroke="none" fill="hsla(0, 0%, 18%, 1.00)" rx="3.973684210526316" transform="rotate(45, 500, 711.1111111111112)"></rect><rect width="7.947368421052632" height="44.44444444444444" x="496.0263157894737" y="688.888888888889" stroke="none" fill="hsla(0, 0%, 18%, 1.00)" rx="3.973684210526316" transform="rotate(45, 500, 711.1111111111112)"></rect><rect width="44.44444444444444" height="7.947368421052632" x="577.7777777777778" y="707.1374269005848" stroke="none" fill="hsla(37, 91%, 55%, 1.00)" rx="3.973684210526316" transform="rotate(45, 600, 711.1111111111112)"></rect><rect width="7.947368421052632" height="44.44444444444444" x="596.0263157894736" y="688.888888888889" stroke="none" fill="hsla(37, 91%, 55%, 1.00)" rx="3.973684210526316" transform="rotate(45, 600, 711.1111111111112)"></rect><rect width="44.44444444444444" height="7.947368421052632" x="677.7777777777778" y="707.1374269005848" stroke="none" fill="hsla(0, 0%, 18%, 1.00)" rx="3.973684210526316" transform="rotate(45, 700, 711.1111111111112)"></rect><rect width="7.947368421052632" height="44.44444444444444" x="696.0263157894736" y="688.888888888889" stroke="none" fill="hsla(0, 0%, 18%, 1.00)" rx="3.973684210526316" transform="rotate(45, 700, 711.1111111111112)"></rect><rect width="44.44444444444444" height="7.947368421052632" x="777.7777777777778" y="707.1374269005848" stroke="none" fill="hsla(37, 91%, 55%, 1.00)" rx="3.973684210526316" transform="rotate(45, 800, 711.1111111111112)"></rect><rect width="7.947368421052632" height="44.44444444444444" x="796.0263157894736" y="688.888888888889" stroke="none" fill="hsla(37, 91%, 55%, 1.00)" rx="3.973684210526316" transform="rotate(45, 800, 711.1111111111112)"></rect><rect width="44.44444444444444" height="7.947368421052632" x="-22.22222222222222" y="796.0263157894738" stroke="none" fill="hsla(0, 0%, 18%, 1.00)" rx="3.973684210526316" transform="rotate(45, 0, 800.0000000000001)"></rect><rect width="7.947368421052632" height="44.44444444444444" x="-3.973684210526316" y="777.7777777777779" stroke="none" fill="hsla(0, 0%, 18%, 1.00)" rx="3.973684210526316" transform="rotate(45, 0, 800.0000000000001)"></rect><rect width="44.44444444444444" height="7.947368421052632" x="77.77777777777777" y="796.0263157894738" stroke="none" fill="hsla(37, 91%, 55%, 1.00)" rx="3.973684210526316" transform="rotate(45, 100, 800.0000000000001)"></rect><rect width="7.947368421052632" height="44.44444444444444" x="96.02631578947368" y="777.7777777777779" stroke="none" fill="hsla(37, 91%, 55%, 1.00)" rx="3.973684210526316" transform="rotate(45, 100, 800.0000000000001)"></rect><rect width="44.44444444444444" height="7.947368421052632" x="177.77777777777777" y="796.0263157894738" stroke="none" fill="hsla(0, 0%, 18%, 1.00)" rx="3.973684210526316" transform="rotate(45, 200, 800.0000000000001)"></rect><rect width="7.947368421052632" height="44.44444444444444" x="196.02631578947367" y="777.7777777777779" stroke="none" fill="hsla(0, 0%, 18%, 1.00)" rx="3.973684210526316" transform="rotate(45, 200, 800.0000000000001)"></rect><rect width="44.44444444444444" height="7.947368421052632" x="277.77777777777777" y="796.0263157894738" stroke="none" fill="hsla(37, 91%, 55%, 1.00)" rx="3.973684210526316" transform="rotate(45, 300, 800.0000000000001)"></rect><rect width="7.947368421052632" height="44.44444444444444" x="296.0263157894737" y="777.7777777777779" stroke="none" fill="hsla(37, 91%, 55%, 1.00)" rx="3.973684210526316" transform="rotate(45, 300, 800.0000000000001)"></rect><rect width="44.44444444444444" height="7.947368421052632" x="377.77777777777777" y="796.0263157894738" stroke="none" fill="hsla(0, 0%, 18%, 1.00)" rx="3.973684210526316" transform="rotate(45, 400, 800.0000000000001)"></rect><rect width="7.947368421052632" height="44.44444444444444" x="396.0263157894737" y="777.7777777777779" stroke="none" fill="hsla(0, 0%, 18%, 1.00)" rx="3.973684210526316" transform="rotate(45, 400, 800.0000000000001)"></rect><rect width="44.44444444444444" height="7.947368421052632" x="477.77777777777777" y="796.0263157894738" stroke="none" fill="hsla(37, 91%, 55%, 1.00)" rx="3.973684210526316" transform="rotate(45, 500, 800.0000000000001)"></rect><rect width="7.947368421052632" height="44.44444444444444" x="496.0263157894737" y="777.7777777777779" stroke="none" fill="hsla(37, 91%, 55%, 1.00)" rx="3.973684210526316" transform="rotate(45, 500, 800.0000000000001)"></rect><rect width="44.44444444444444" height="7.947368421052632" x="577.7777777777778" y="796.0263157894738" stroke="none" fill="hsla(0, 0%, 18%, 1.00)" rx="3.973684210526316" transform="rotate(45, 600, 800.0000000000001)"></rect><rect width="7.947368421052632" height="44.44444444444444" x="596.0263157894736" y="777.7777777777779" stroke="none" fill="hsla(0, 0%, 18%, 1.00)" rx="3.973684210526316" transform="rotate(45, 600, 800.0000000000001)"></rect><rect width="44.44444444444444" height="7.947368421052632" x="677.7777777777778" y="796.0263157894738" stroke="none" fill="hsla(37, 91%, 55%, 1.00)" rx="3.973684210526316" transform="rotate(45, 700, 800.0000000000001)"></rect><rect width="7.947368421052632" height="44.44444444444444" x="696.0263157894736" y="777.7777777777779" stroke="none" fill="hsla(37, 91%, 55%, 1.00)" rx="3.973684210526316" transform="rotate(45, 700, 800.0000000000001)"></rect><rect width="44.44444444444444" height="7.947368421052632" x="777.7777777777778" y="796.0263157894738" stroke="none" fill="hsla(0, 0%, 18%, 1.00)" rx="3.973684210526316" transform="rotate(45, 800, 800.0000000000001)"></rect><rect width="7.947368421052632" height="44.44444444444444" x="796.0263157894736" y="777.7777777777779" stroke="none" fill="hsla(0, 0%, 18%, 1.00)" rx="3.973684210526316" transform="rotate(45, 800, 800.0000000000001)"></rect></g></svg>