<svg width="815" height="1172" viewBox="0 0 815 1172" fill="none" xmlns="http://www.w3.org/2000/svg">
<g opacity="0.75" filter="url(#filter0_d_210_242)">
<path d="M250 259C294.912 259 339.384 267.587 380.878 284.272C422.371 300.957 460.073 325.412 491.831 356.241C523.588 387.07 548.78 423.669 565.967 463.949C583.154 504.229 592 547.401 592 591C592 634.599 583.154 677.771 565.967 718.051C548.78 758.331 523.588 794.93 491.831 825.759C460.073 856.589 422.371 881.043 380.878 897.728C339.384 914.413 294.912 923 250 923" stroke="url(#paint0_linear_210_242)" stroke-width="70"/>
</g>
<defs>
<filter id="filter0_d_210_242" x="0" y="0" width="815" height="1172" filterUnits="userSpaceOnUse" color-interpolation-filters="sRGB">
<feFlood flood-opacity="0" result="BackgroundImageFix"/>
<feColorMatrix in="SourceAlpha" type="matrix" values="0 0 0 0 0 0 0 0 0 0 0 0 0 0 0 0 0 0 127 0" result="hardAlpha"/>
<feOffset dx="-31" dy="-5"/>
<feGaussianBlur stdDeviation="109.5"/>
<feComposite in2="hardAlpha" operator="out"/>
<feColorMatrix type="matrix" values="0 0 0 0 0.700866 0 0 0 0 0.991635 0 0 0 0 0.974189 0 0 0 0.5 0"/>
<feBlend mode="normal" in2="BackgroundImageFix" result="effect1_dropShadow_210_242"/>
<feBlend mode="normal" in="SourceGraphic" in2="effect1_dropShadow_210_242" result="shape"/>
</filter>
<linearGradient id="paint0_linear_210_242" x1="250" y1="591" x2="779.705" y2="651.629" gradientUnits="userSpaceOnUse">
<stop stop-color="#ED5C6D"/>
<stop offset="1" stop-color="#813D7A"/>
</linearGradient>
</defs>
</svg>
